<svg xmlns="http://www.w3.org/2000/svg" xmlns:xlink="http://www.w3.org/1999/xlink" style="margin:auto;background:#00001a;display:block;z-index:1;position:relative" width="1790" height="841" preserveAspectRatio="xMidYMid" viewBox="0 0 1790 841">
<g transform="translate(895,420.5) scale(1,1) translate(-895,-420.5)"><path id="path0" d="M 102.21448459099356 14.645990045455228
c 0 22.95563079676751 -5.616803280060135 6.593638633114073 -12.210441913174208 6.593638633114073
S 77.79360076464515 37.601620842222744 77.79360076464515 14.645990045455228
s 5.616803280060135 -6.593638633114073 12.210441913174208 -6.593638633114073
S 102.21448459099356 -8.309640751312283 102.21448459099356 14.645990045455228
z" fill="none" stroke="none"></path>
<circle cx="0" cy="0" r="2.843889090021383" fill="#4ff2f8">
  <animateMotion begin="-9.621519315517649s" dur="15.25s" repeatCount="indefinite">
    <mpath xlink:href="#path0"></mpath>
  </animateMotion>
</circle><path id="path1" d="M 438.105491062727 108.47345837766505
c 0 26.031214927461264 -6.369339822676692 7.477051096185683 -13.846390918862374 7.477051096185683
S 410.4127092250023 134.50467330512632 410.4127092250023 108.47345837766505
s 6.369339822676692 -7.477051096185683 13.846390918862374 -7.477051096185683
S 438.105491062727 82.44224345020379 438.105491062727 108.47345837766505
z" fill="none" stroke="none"></path>
<circle cx="0" cy="0" r="3.5775691217005114" fill="#4ff2f8">
  <animateMotion begin="-7.15442105821097s" dur="15.25s" repeatCount="indefinite">
    <mpath xlink:href="#path1"></mpath>
  </animateMotion>
</circle><path id="path2" d="M 700.6632036796295 794.6020041743006
c 0 27.015618676772352 -6.610204569848554 7.759805364604825 -14.370009934453378 7.759805364604825
S 671.9231838107228 821.617622851073 671.9231838107228 794.6020041743006
s 6.610204569848554 -7.759805364604825 14.370009934453378 -7.759805364604825
S 700.6632036796295 767.5863854975283 700.6632036796295 794.6020041743006
z" fill="none" stroke="none"></path>
<circle cx="0" cy="0" r="2.9300548128112167" fill="#4ff2f8">
  <animateMotion begin="-1.0879953857499152s" dur="15.25s" repeatCount="indefinite">
    <mpath xlink:href="#path2"></mpath>
  </animateMotion>
</circle><path id="path3" d="M 1364.9173636456587 427.0923459978206
c 0 22.61539845833696 -5.533554941933511 6.49591232313934 -12.029467265072851 6.49591232313934
S 1340.8584291155132 449.70774445615757 1340.8584291155132 427.0923459978206
s 5.533554941933511 -6.49591232313934 12.029467265072851 -6.49591232313934
S 1364.9173636456587 404.4769475394836 1364.9173636456587 427.0923459978206
z" fill="none" stroke="none"></path>
<circle cx="0" cy="0" r="3.4578079425836643" fill="#f30f4c">
  <animateMotion begin="-4.345626017196223s" dur="15.25s" repeatCount="indefinite">
    <mpath xlink:href="#path3"></mpath>
  </animateMotion>
</circle><path id="path4" d="M 106.97743897735785 679.2034963203618
c 0 30.226112216117148 -7.395750861390365 8.681968402501735 -16.0777192638921 8.681968402501735
S 74.82200044957364 709.4296085364789 74.82200044957364 679.2034963203618
s 7.395750861390365 -8.681968402501735 16.0777192638921 -8.681968402501735
S 106.97743897735785 648.9773841042446 106.97743897735785 679.2034963203618
z" fill="none" stroke="none"></path>
<circle cx="0" cy="0" r="3.5286881958956733" fill="#f30f4c">
  <animateMotion begin="-5.021692250440347s" dur="15.25s" repeatCount="indefinite">
    <mpath xlink:href="#path4"></mpath>
  </animateMotion>
</circle><path id="path5" d="M 1605.7180856117384 791.1688168854084
c 0 31.015986150517655 -7.589017887892617 8.908847085786986 -16.497864973679604 8.908847085786986
S 1572.7223556643794 822.184803035926 1572.7223556643794 791.1688168854084
s 7.589017887892617 -8.908847085786986 16.497864973679604 -8.908847085786986
S 1605.7180856117384 760.1528307348908 1605.7180856117384 791.1688168854084
z" fill="none" stroke="none"></path>
<circle cx="0" cy="0" r="2.4592752746825717" fill="#4ff2f8">
  <animateMotion begin="-14.702464860288943s" dur="15.25s" repeatCount="indefinite">
    <mpath xlink:href="#path5"></mpath>
  </animateMotion>
</circle><path id="path6" d="M 1367.4896360445698 314.6878955357244
c 0 19.91468700414822 -4.872742564844777 5.720176054382999 -10.592918619227776 5.720176054382999
S 1346.3037988061144 334.6025825398726 1346.3037988061144 314.6878955357244
s 4.872742564844777 -5.720176054382999 10.592918619227776 -5.720176054382999
S 1367.4896360445698 294.7732085315762 1367.4896360445698 314.6878955357244
z" fill="none" stroke="none"></path>
<circle cx="0" cy="0" r="2.572121748920524" fill="#4ff2f8">
  <animateMotion begin="-11.154650368420501s" dur="15.25s" repeatCount="indefinite">
    <mpath xlink:href="#path6"></mpath>
  </animateMotion>
</circle><path id="path7" d="M 175.84429971639528 366.0854507317775
c 0 32.328558425879294 -7.91017918931089 9.285862526582351 -17.19604171589324 9.285862526582351
S 141.4522162846088 398.4140091576568 141.4522162846088 366.0854507317775
s 7.91017918931089 -9.285862526582351 17.19604171589324 -9.285862526582351
S 175.84429971639528 333.7568923058982 175.84429971639528 366.0854507317775
z" fill="none" stroke="none"></path>
<circle cx="0" cy="0" r="3.0798589588348455" fill="#00003f">
  <animateMotion begin="-10.678692585007736s" dur="15.25s" repeatCount="indefinite">
    <mpath xlink:href="#path7"></mpath>
  </animateMotion>
</circle><path id="path8" d="M 454.0404674476022 485.94298135991943
c 0 35.48660248075659 -8.682892096355333 10.192960287025828 -18.87585238338116 10.192960287025828
S 416.28876268083985 521.4295838406761 416.28876268083985 485.94298135991943
s 8.682892096355333 -10.192960287025828 18.87585238338116 -10.192960287025828
S 454.0404674476022 450.45637887916286 454.0404674476022 485.94298135991943
z" fill="none" stroke="none"></path>
<circle cx="0" cy="0" r="3.151408061061534" fill="#f30f4c">
  <animateMotion begin="-11.017326548647002s" dur="15.25s" repeatCount="indefinite">
    <mpath xlink:href="#path8"></mpath>
  </animateMotion>
</circle><path id="path9" d="M 276.89112298174206 182.0704013051132
c 0 36.73812940973598 -8.989116770467314 10.55244142620076 -19.541558196668074 10.55244142620076
S 237.80800658840593 218.80853071484918 237.80800658840593 182.0704013051132
s 8.989116770467314 -10.55244142620076 19.541558196668074 -10.55244142620076
S 276.89112298174206 145.3322718953772 276.89112298174206 182.0704013051132
z" fill="none" stroke="none"></path>
<circle cx="0" cy="0" r="3.627218672260852" fill="#f30f4c">
  <animateMotion begin="-2.2668663724635683s" dur="15.25s" repeatCount="indefinite">
    <mpath xlink:href="#path9"></mpath>
  </animateMotion>
</circle><path id="path10" d="M 1379.541013404683 183.82889181047406
c 0 28.78456287477119 -7.043031341699333 8.267906357647044 -15.310937699346375 8.267906357647044
S 1348.9191380059904 212.61345468524524 1348.9191380059904 183.82889181047406
s 7.043031341699333 -8.267906357647044 15.310937699346375 -8.267906357647044
S 1379.541013404683 155.04432893570288 1379.541013404683 183.82889181047406
z" fill="none" stroke="none"></path>
<circle cx="0" cy="0" r="3.430577923951601" fill="#4ff2f8">
  <animateMotion begin="-7.64322387320243s" dur="15.25s" repeatCount="indefinite">
    <mpath xlink:href="#path10"></mpath>
  </animateMotion>
</circle><path id="path11" d="M 266.8244844167847 602.1260658292636
c 0 29.043416015070825 -7.106367748368393 8.342257791562897 -15.448625539931289 8.342257791562897
S 235.9272333369221 631.1694818443344 235.9272333369221 602.1260658292636
s 7.106367748368393 -8.342257791562897 15.448625539931289 -8.342257791562897
S 266.8244844167847 573.0826498141927 266.8244844167847 602.1260658292636
z" fill="none" stroke="none"></path>
<circle cx="0" cy="0" r="2.728972836855675" fill="#f30f4c">
  <animateMotion begin="-0.7955123643740969s" dur="15.25s" repeatCount="indefinite">
    <mpath xlink:href="#path11"></mpath>
  </animateMotion>
</circle><path id="path12" d="M 1559.8607405363316 125.4979930761686
c 0 34.9241849996456 -8.545279308423922 10.031414840323736 -18.57669414874766 10.031414840323736
S 1522.7073522388362 160.4221780758142 1522.7073522388362 125.4979930761686
s 8.545279308423922 -10.031414840323736 18.57669414874766 -10.031414840323736
S 1559.8607405363316 90.573808076523 1559.8607405363316 125.4979930761686
z" fill="none" stroke="none"></path>
<circle cx="0" cy="0" r="2.912405275306075" fill="#4ff2f8">
  <animateMotion begin="-3.292281096781979s" dur="15.25s" repeatCount="indefinite">
    <mpath xlink:href="#path12"></mpath>
  </animateMotion>
</circle><path id="path13" d="M 962.8554353034243 322.4436361695429
c 0 36.67130455772632 -8.972766008805374 10.533247053815007 -19.506013062620383 10.533247053815007
S 923.8434091781836 359.11494072726924 923.8434091781836 322.4436361695429
s 8.972766008805374 -10.533247053815007 19.506013062620383 -10.533247053815007
S 962.8554353034243 285.7723316118166 962.8554353034243 322.4436361695429
z" fill="none" stroke="none"></path>
<circle cx="0" cy="0" r="2.0960006051208344" fill="#00003f">
  <animateMotion begin="-0.7458849364992581s" dur="15.25s" repeatCount="indefinite">
    <mpath xlink:href="#path13"></mpath>
  </animateMotion>
</circle><path id="path14" d="M 1094.2982392162967 690.9681279118666
c 0 26.60377683874757 -6.509434758416958 7.64151036857643 -14.150945126993388 7.64151036857643
S 1065.99634896231 717.5719047506142 1065.99634896231 690.9681279118666
s 6.509434758416958 -7.64151036857643 14.150945126993388 -7.64151036857643
S 1094.2982392162967 664.3643510731191 1094.2982392162967 690.9681279118666
z" fill="none" stroke="none"></path>
<circle cx="0" cy="0" r="2.8693868771447137" fill="#4ff2f8">
  <animateMotion begin="-1.1184092644554744s" dur="15.25s" repeatCount="indefinite">
    <mpath xlink:href="#path14"></mpath>
  </animateMotion>
</circle><path id="path15" d="M 720.2653360735094 599.0715468768053
c 0 29.37343667792293 -7.187117485023695 8.43705096067999 -15.624168445703685 8.43705096067999
S 689.0169991821019 628.4449835547282 689.0169991821019 599.0715468768053
s 7.187117485023695 -8.43705096067999 15.624168445703685 -8.43705096067999
S 720.2653360735094 569.6981101988824 720.2653360735094 599.0715468768053
z" fill="none" stroke="none"></path>
<circle cx="0" cy="0" r="3.6188273388788272" fill="#f30f4c">
  <animateMotion begin="-0.31044233733257975s" dur="15.25s" repeatCount="indefinite">
    <mpath xlink:href="#path15"></mpath>
  </animateMotion>
</circle><path id="path16" d="M 477.69179295987726 225.21204389679693
c 0 21.016354378701113 -5.142299475639634 6.036612427924788 -11.17891190356442 6.036612427924788
S 455.3339691527484 246.22839827549805 455.3339691527484 225.21204389679693
s 5.142299475639634 -6.036612427924788 11.17891190356442 -6.036612427924788
S 477.69179295987726 204.1956895180958 477.69179295987726 225.21204389679693
z" fill="none" stroke="none"></path>
<circle cx="0" cy="0" r="3.5844070305197024" fill="#00003f">
  <animateMotion begin="-14.400341273781844s" dur="15.25s" repeatCount="indefinite">
    <mpath xlink:href="#path16"></mpath>
  </animateMotion>
</circle><path id="path17" d="M 1340.5979725105142 676.3493873768366
c 0 29.039365968992428 -7.105376779647083 8.341094480455272 -15.446471260102355 8.341094480455272
S 1309.7050299903096 705.3887533458291 1309.7050299903096 676.3493873768366
s 7.105376779647083 -8.341094480455272 15.446471260102355 -8.341094480455272
S 1340.5979725105142 647.3100214078441 1340.5979725105142 676.3493873768366
z" fill="none" stroke="none"></path>
<circle cx="0" cy="0" r="2.1332226053092085" fill="#4ff2f8">
  <animateMotion begin="-5.5318295730867915s" dur="15.25s" repeatCount="indefinite">
    <mpath xlink:href="#path17"></mpath>
  </animateMotion>
</circle><path id="path18" d="M 1074.5807227119424 28.591307627330522
c 0 33.54064805546611 -8.206754311443834 9.634015930825372 -17.840770242269205 9.634015930825372
S 1038.899182227404 62.13195568279663 1038.899182227404 28.591307627330522
s 8.206754311443834 -9.634015930825372 17.840770242269205 -9.634015930825372
S 1074.5807227119424 -4.949340428135585 1074.5807227119424 28.591307627330522
z" fill="none" stroke="none"></path>
<circle cx="0" cy="0" r="2.9640945182732317" fill="#00003f">
  <animateMotion begin="-5.13918797192846s" dur="15.25s" repeatCount="indefinite">
    <mpath xlink:href="#path18"></mpath>
  </animateMotion>
</circle><path id="path19" d="M 1045.2354466182062 674.8553841957095
c 0 33.22923244282329 -8.130556874307825 9.544566765491796 -17.675123639799622 9.544566765491796
S 1009.8851993386069 708.0846166385328 1009.8851993386069 674.8553841957095
s 8.130556874307825 -9.544566765491796 17.675123639799622 -9.544566765491796
S 1045.2354466182062 641.6261517528861 1045.2354466182062 674.8553841957095
z" fill="none" stroke="none"></path>
<circle cx="0" cy="0" r="3.830987319656178" fill="#00003f">
  <animateMotion begin="-7.808359174525238s" dur="15.25s" repeatCount="indefinite">
    <mpath xlink:href="#path19"></mpath>
  </animateMotion>
</circle><path id="path20" d="M 241.56251574929607 277.8190830819323
c 0 30.3570534200228 -7.427789666601322 8.719579173836337 -16.147368840437657 8.719579173836337
S 209.26777806842077 308.1761365019551 209.26777806842077 277.8190830819323
s 7.427789666601322 -8.719579173836337 16.147368840437657 -8.719579173836337
S 241.56251574929607 247.46202966190953 241.56251574929607 277.8190830819323
z" fill="none" stroke="none"></path>
<circle cx="0" cy="0" r="3.366025319798963" fill="#4ff2f8">
  <animateMotion begin="-5.384786969946921s" dur="15.25s" repeatCount="indefinite">
    <mpath xlink:href="#path20"></mpath>
  </animateMotion>
</circle><path id="path21" d="M 335.9810469620787 698.6205764595974
c 0 22.35400570683705 -5.469597141034597 6.420831426431919 -11.890428567466515 6.420831426431919
S 312.20018982714566 720.9745821664344 312.20018982714566 698.6205764595974
s 5.469597141034597 -6.420831426431919 11.890428567466515 -6.420831426431919
S 335.9810469620787 676.2665707527603 335.9810469620787 698.6205764595974
z" fill="none" stroke="none"></path>
<circle cx="0" cy="0" r="2.8798712684850973" fill="#4ff2f8">
  <animateMotion begin="-0.874589845656863s" dur="15.25s" repeatCount="indefinite">
    <mpath xlink:href="#path21"></mpath>
  </animateMotion>
</circle><path id="path22" d="M 59.19093272518715 203.05592268984597
c 0 29.57023828295013 -7.2352710692324775 8.493579081272909 -15.728850150505387 8.493579081272909
S 27.73323242417638 232.6261609727961 27.73323242417638 203.05592268984597
s 7.2352710692324775 -8.493579081272909 15.728850150505387 -8.493579081272909
S 59.19093272518715 173.48568440689584 59.19093272518715 203.05592268984597
z" fill="none" stroke="none"></path>
<circle cx="0" cy="0" r="3.766201383546847" fill="#4ff2f8">
  <animateMotion begin="-3.7799152701418404s" dur="15.25s" repeatCount="indefinite">
    <mpath xlink:href="#path22"></mpath>
  </animateMotion>
</circle><path id="path23" d="M 34.329839849179564 646.3601745635069
c 0 22.66111187056452 -5.544740138542382 6.509042771332362 -12.053782909874744 6.509042771332362
S 10.222274029430075 669.0212864340714 10.222274029430075 646.3601745635069
s 5.544740138542382 -6.509042771332362 12.053782909874744 -6.509042771332362
S 34.329839849179564 623.6990626929424 34.329839849179564 646.3601745635069
z" fill="none" stroke="none"></path>
<circle cx="0" cy="0" r="3.127926227800646" fill="#f30f4c">
  <animateMotion begin="-0.26764057842432254s" dur="15.25s" repeatCount="indefinite">
    <mpath xlink:href="#path23"></mpath>
  </animateMotion>
</circle><path id="path24" d="M 1229.4376907333624 612.2680703772098
c 0 29.08746048870013 -7.117144587660669 8.35490886377557 -15.472053451436238 8.35490886377557
S 1198.4935838304898 641.3555308659099 1198.4935838304898 612.2680703772098
s 7.117144587660669 -8.35490886377557 15.472053451436238 -8.35490886377557
S 1229.4376907333624 583.1806098885097 1229.4376907333624 612.2680703772098
z" fill="none" stroke="none"></path>
<circle cx="0" cy="0" r="3.112244713747798" fill="#00003f">
  <animateMotion begin="-8.667123289139026s" dur="15.25s" repeatCount="indefinite">
    <mpath xlink:href="#path24"></mpath>
  </animateMotion>
</circle><path id="path25" d="M 519.2944211865274 684.5321252851027
c 0 34.3317238806068 -8.400315417595282 9.861239838046636 -18.261555255641916 9.861239838046636
S 482.77131067524357 718.8638491657094 482.77131067524357 684.5321252851027
s 8.400315417595282 -9.861239838046636 18.261555255641916 -9.861239838046636
S 519.2944211865274 650.2004014044959 519.2944211865274 684.5321252851027
z" fill="none" stroke="none"></path>
<circle cx="0" cy="0" r="2.852095096038371" fill="#00003f">
  <animateMotion begin="-1.3103005611280154s" dur="15.25s" repeatCount="indefinite">
    <mpath xlink:href="#path25"></mpath>
  </animateMotion>
</circle><path id="path26" d="M 1429.225822919681 388.8663527300433
c 0 31.688399045910607 -7.753544447403658 9.1019869599956 -16.85553140739926 9.1019869599956
S 1395.5147601048825 420.5547517759539 1395.5147601048825 388.8663527300433
s 7.753544447403658 -9.1019869599956 16.85553140739926 -9.1019869599956
S 1429.225822919681 357.17795368413266 1429.225822919681 388.8663527300433
z" fill="none" stroke="none"></path>
<circle cx="0" cy="0" r="3.9366562922962816" fill="#f30f4c">
  <animateMotion begin="-9.157379656422664s" dur="15.25s" repeatCount="indefinite">
    <mpath xlink:href="#path26"></mpath>
  </animateMotion>
</circle><path id="path27" d="M 358.1891043665488 492.9770305851068
c 0 35.27712668200492 -8.6316373796395 10.132791706533329 -18.76442908617283 10.132791706533329
S 320.6602461942032 528.2541572671117 320.6602461942032 492.9770305851068
s 8.6316373796395 -10.132791706533329 18.76442908617283 -10.132791706533329
S 358.1891043665488 457.69990390310187 358.1891043665488 492.9770305851068
z" fill="none" stroke="none"></path>
<circle cx="0" cy="0" r="2.59391840750408" fill="#00003f">
  <animateMotion begin="-3.808965193890783s" dur="15.25s" repeatCount="indefinite">
    <mpath xlink:href="#path27"></mpath>
  </animateMotion>
</circle><path id="path28" d="M 1059.821102237609 392.67824694778835
c 0 34.552658209686165 -8.454373817263635 9.924699698526878 -18.379073515790513 9.924699698526878
S 1023.062955206028 427.2309051574745 1023.062955206028 392.67824694778835
s 8.454373817263635 -9.924699698526878 18.379073515790513 -9.924699698526878
S 1059.821102237609 358.1255887381022 1059.821102237609 392.67824694778835
z" fill="none" stroke="none"></path>
<circle cx="0" cy="0" r="3.743646888492325" fill="#4ff2f8">
  <animateMotion begin="-14.938185181752972s" dur="15.25s" repeatCount="indefinite">
    <mpath xlink:href="#path28"></mpath>
  </animateMotion>
</circle><path id="path29" d="M 753.378558692923 170.7437745265302
c 0 29.979195254653533 -7.335335009117353 8.611045445485589 -15.946380454602942 8.611045445485589
S 721.4857977837171 200.72296978118374 721.4857977837171 170.7437745265302
s 7.335335009117353 -8.611045445485589 15.946380454602942 -8.611045445485589
S 753.378558692923 140.76457927187664 753.378558692923 170.7437745265302
z" fill="none" stroke="none"></path>
<circle cx="0" cy="0" r="3.793349816702183" fill="#00003f">
  <animateMotion begin="-9.810158601258912s" dur="15.25s" repeatCount="indefinite">
    <mpath xlink:href="#path29"></mpath>
  </animateMotion>
</circle><path id="path30" d="M 858.1474451555525 509.30288057168485
c 0 31.540487745953712 -7.717353384648248 9.059501799369684 -16.776855184017933 9.059501799369684
S 824.5937347875167 540.8433683176386 824.5937347875167 509.30288057168485
s 7.717353384648248 -9.059501799369684 16.776855184017933 -9.059501799369684
S 858.1474451555525 477.7623928257311 858.1474451555525 509.30288057168485
z" fill="none" stroke="none"></path>
<circle cx="0" cy="0" r="2.1691705641101624" fill="#00003f">
  <animateMotion begin="-11.144901099070582s" dur="15.25s" repeatCount="indefinite">
    <mpath xlink:href="#path30"></mpath>
  </animateMotion>
</circle><path id="path31" d="M 1121.1491779707176 95.10687495358135
c 0 28.889259166191536 -7.06864851938729 8.297978696672038 -15.366627216059328 8.297978696672038
S 1090.4159235385987 123.99613411977289 1090.4159235385987 95.10687495358135
s 7.06864851938729 -8.297978696672038 15.366627216059328 -8.297978696672038
S 1121.1491779707176 66.21761578738982 1121.1491779707176 95.10687495358135
z" fill="none" stroke="none"></path>
<circle cx="0" cy="0" r="3.3164108347542807" fill="#f30f4c">
  <animateMotion begin="-5.193575436485872s" dur="15.25s" repeatCount="indefinite">
    <mpath xlink:href="#path31"></mpath>
  </animateMotion>
</circle><path id="path32" d="M 854.6859036258696 416.8807904237282
c 0 22.824284818621575 -5.5846654343435755 6.555911596838111 -12.140577031181687 6.555911596838111
S 830.4047495635062 439.7050752423497 830.4047495635062 416.8807904237282
s 5.5846654343435755 -6.555911596838111 12.140577031181687 -6.555911596838111
S 854.6859036258696 394.0565056051066 854.6859036258696 416.8807904237282
z" fill="none" stroke="none"></path>
<circle cx="0" cy="0" r="3.5704955282029447" fill="#4ff2f8">
  <animateMotion begin="-7.591503472463559s" dur="15.25s" repeatCount="indefinite">
    <mpath xlink:href="#path32"></mpath>
  </animateMotion>
</circle><path id="path33" d="M 1528.3271248758867 814.7991416809509
c 0 25.945346813052517 -6.348329539363912 7.452386850557637 -13.80071638992155 7.452386850557637
S 1500.7256920960438 840.7444884940035 1500.7256920960438 814.7991416809509
s 6.348329539363912 -7.452386850557637 13.80071638992155 -7.452386850557637
S 1528.3271248758867 788.8537948678984 1528.3271248758867 814.7991416809509
z" fill="none" stroke="none"></path>
<circle cx="0" cy="0" r="2.5604262518486047" fill="#4ff2f8">
  <animateMotion begin="-14.904848962652846s" dur="15.25s" repeatCount="indefinite">
    <mpath xlink:href="#path33"></mpath>
  </animateMotion>
</circle><path id="path34" d="M 1021.6912699868681 740.6676695491458
c 0 32.140445900756895 -7.864151656568176 9.231830205536555 -17.095981862104733 9.231830205536555
S 987.4993062626586 772.8081154499026 987.4993062626586 740.6676695491458
s 7.864151656568176 -9.231830205536555 17.095981862104733 -9.231830205536555
S 1021.6912699868681 708.5272236483889 1021.6912699868681 740.6676695491458
z" fill="none" stroke="none"></path>
<circle cx="0" cy="0" r="2.99269782836811" fill="#f30f4c">
  <animateMotion begin="-0.5605866628730503s" dur="15.25s" repeatCount="indefinite">
    <mpath xlink:href="#path34"></mpath>
  </animateMotion>
</circle><path id="path35" d="M 301.216737584245 780.822260462649
c 0 30.83599813290281 -7.5449782665613245 8.857148399876339 -16.402126666437663 8.857148399876339
S 268.4124842513697 811.6582585955517 268.4124842513697 780.822260462649
s 7.5449782665613245 -8.857148399876339 16.402126666437663 -8.857148399876339
S 301.216737584245 749.9862623297462 301.216737584245 780.822260462649
z" fill="none" stroke="none"></path>
<circle cx="0" cy="0" r="2.599827110912833" fill="#4ff2f8">
  <animateMotion begin="-1.455976515408156s" dur="15.25s" repeatCount="indefinite">
    <mpath xlink:href="#path35"></mpath>
  </animateMotion>
</circle><path id="path36" d="M 488.78492407955343 576.3494701806842
c 0 20.068317381606636 -4.91033297635056 5.764303928759354 -10.674636905109914 5.764303928759354
S 467.43565026933356 596.4177875622909 467.43565026933356 576.3494701806842
s 4.91033297635056 -5.764303928759354 10.674636905109914 -5.764303928759354
S 488.78492407955343 556.2811527990775 488.78492407955343 576.3494701806842
z" fill="none" stroke="none"></path>
<circle cx="0" cy="0" r="3.3134910245898324" fill="#4ff2f8">
  <animateMotion begin="-0.5514542169054548s" dur="15.25s" repeatCount="indefinite">
    <mpath xlink:href="#path36"></mpath>
  </animateMotion>
</circle><path id="path37" d="M 990.022689779539 70.85971042986722
c 0 21.70594225600468 -5.31102842434157 6.234685541618366 -11.545713965959937 6.234685541618366
S 966.931261847619 92.5656526858719 966.931261847619 70.85971042986722
s 5.31102842434157 -6.234685541618366 11.545713965959937 -6.234685541618366
S 990.022689779539 49.153768173862545 990.022689779539 70.85971042986722
z" fill="none" stroke="none"></path>
<circle cx="0" cy="0" r="3.8728894170483112" fill="#f30f4c">
  <animateMotion begin="-4.762805035903493s" dur="15.25s" repeatCount="indefinite">
    <mpath xlink:href="#path37"></mpath>
  </animateMotion>
</circle><path id="path38" d="M 172.53956486177532 834.025177462845
c 0 22.977203923942813 -5.6220818111774955 6.599835169643148 -12.221916980820644 6.599835169643148
S 148.09573090013401 857.0023813867879 148.09573090013401 834.025177462845
s 5.6220818111774955 -6.599835169643148 12.221916980820644 -6.599835169643148
S 172.53956486177532 811.0479735389022 172.53956486177532 834.025177462845
z" fill="none" stroke="none"></path>
<circle cx="0" cy="0" r="3.961550338443631" fill="#00003f">
  <animateMotion begin="-0.5763909090327302s" dur="15.25s" repeatCount="indefinite">
    <mpath xlink:href="#path38"></mpath>
  </animateMotion>
</circle><path id="path39" d="M 613.9564280630611 834.1852288546767
c 0 26.097016207227608 -6.3854401358110096 7.495951463778143 -13.881391599589152 7.495951463778143
S 586.1936448638828 860.2822450619043 586.1936448638828 834.1852288546767
s 6.3854401358110096 -7.495951463778143 13.881391599589152 -7.495951463778143
S 613.9564280630611 808.088212647449 613.9564280630611 834.1852288546767
z" fill="none" stroke="none"></path>
<circle cx="0" cy="0" r="3.2086758622381693" fill="#00003f">
  <animateMotion begin="-6.884019423956952s" dur="15.25s" repeatCount="indefinite">
    <mpath xlink:href="#path39"></mpath>
  </animateMotion>
</circle><path id="path40" d="M 704.3159963059923 517.3209601548338
c 0 26.937814190197678 -6.591167301856878 7.737457267397205 -14.328624569254082 7.737457267397205
S 675.6587471674841 544.2587743450314 675.6587471674841 517.3209601548338
s 6.591167301856878 -7.737457267397205 14.328624569254082 -7.737457267397205
S 704.3159963059923 490.38314596463607 704.3159963059923 517.3209601548338
z" fill="none" stroke="none"></path>
<circle cx="0" cy="0" r="3.618821620545227" fill="#4ff2f8">
  <animateMotion begin="-7.994346613831851s" dur="15.25s" repeatCount="indefinite">
    <mpath xlink:href="#path40"></mpath>
  </animateMotion>
</circle><path id="path41" d="M 1317.4011073192748 768.9694585028816
c 0 34.716344254014025 -8.494424657897047 9.971715902748711 -18.46614056064576 9.971715902748711
S 1280.4688261979834 803.6858027568957 1280.4688261979834 768.9694585028816
s 8.494424657897047 -9.971715902748711 18.46614056064576 -9.971715902748711
S 1317.4011073192748 734.2531142488675 1317.4011073192748 768.9694585028816
z" fill="none" stroke="none"></path>
<circle cx="0" cy="0" r="2.8596369178823378" fill="#00003f">
  <animateMotion begin="-8.400929986125911s" dur="15.25s" repeatCount="indefinite">
    <mpath xlink:href="#path41"></mpath>
  </animateMotion>
</circle><path id="path42" d="M 250.19269875219274 581.5036170763785
c 0 35.14887451746475 -8.600256530869032 10.095953318846258 -18.69620984971529 10.095953318846258
S 212.80027905276214 616.6524915938433 212.80027905276214 581.5036170763785
s 8.600256530869032 -10.095953318846258 18.69620984971529 -10.095953318846258
S 250.19269875219274 546.3547425589138 250.19269875219274 581.5036170763785
z" fill="none" stroke="none"></path>
<circle cx="0" cy="0" r="2.0137441133419127" fill="#f30f4c">
  <animateMotion begin="-10.808883301475374s" dur="15.25s" repeatCount="indefinite">
    <mpath xlink:href="#path42"></mpath>
  </animateMotion>
</circle><path id="path43" d="M 1327.2237564474442 376.78955046747546
c 0 28.250643268271418 -6.912391437981304 8.114546470673705 -15.02693790865501 8.114546470673705
S 1297.169880630134 405.04019373574687 1297.169880630134 376.78955046747546
s 6.912391437981304 -8.114546470673705 15.02693790865501 -8.114546470673705
S 1327.2237564474442 348.53890719920406 1327.2237564474442 376.78955046747546
z" fill="none" stroke="none"></path>
<circle cx="0" cy="0" r="3.5330781903113464" fill="#f30f4c">
  <animateMotion begin="-6.306626209223904s" dur="15.25s" repeatCount="indefinite">
    <mpath xlink:href="#path43"></mpath>
  </animateMotion>
</circle><path id="path44" d="M 551.7402852113469 298.6768222962168
c 0 36.96428644265714 -9.044453065756533 10.61740142501854 -19.661854490775074 10.61740142501854
S 512.4165762297966 335.641108738874 512.4165762297966 298.6768222962168
s 9.044453065756533 -10.61740142501854 19.661854490775074 -10.61740142501854
S 551.7402852113469 261.71253585355964 551.7402852113469 298.6768222962168
z" fill="none" stroke="none"></path>
<circle cx="0" cy="0" r="3.0855593131565127" fill="#f30f4c">
  <animateMotion begin="-11.513026045930577s" dur="15.25s" repeatCount="indefinite">
    <mpath xlink:href="#path44"></mpath>
  </animateMotion>
</circle><path id="path45" d="M 284.8038726996343 363.15520001694716
c 0 35.597267638150704 -8.709969741249639 10.224747087553926 -18.934716828803563 10.224747087553926
S 246.93443904202718 398.75246765509786 246.93443904202718 363.15520001694716
s 8.709969741249639 -10.224747087553926 18.934716828803563 -10.224747087553926
S 284.8038726996343 327.55793237879647 284.8038726996343 363.15520001694716
z" fill="none" stroke="none"></path>
<circle cx="0" cy="0" r="3.0041648718494516" fill="#00003f">
  <animateMotion begin="-6.5967033779673665s" dur="15.25s" repeatCount="indefinite">
    <mpath xlink:href="#path45"></mpath>
  </animateMotion>
</circle><path id="path46" d="M 1040.1882026565986 591.1538287636722
c 0 29.620469550481467 -7.24756169852206 8.508007211308506 -15.755568909830567 8.508007211308506
S 1008.6770648369375 620.7742983141537 1008.6770648369375 591.1538287636722
s 7.24756169852206 -8.508007211308506 15.755568909830567 -8.508007211308506
S 1040.1882026565986 561.5333592131907 1040.1882026565986 591.1538287636722
z" fill="none" stroke="none"></path>
<circle cx="0" cy="0" r="3.732236631136772" fill="#f30f4c">
  <animateMotion begin="-6.274139016453969s" dur="15.25s" repeatCount="indefinite">
    <mpath xlink:href="#path46"></mpath>
  </animateMotion>
</circle><path id="path47" d="M 362.39231136415304 673.5139354739797
c 0 34.24476322672367 -8.379037810794088 9.836261777888714 -18.215299588682804 9.836261777888714
S 325.96171218678745 707.7586987007033 325.96171218678745 673.5139354739797
s 8.379037810794088 -9.836261777888714 18.215299588682804 -9.836261777888714
S 362.39231136415304 639.269172247256 362.39231136415304 673.5139354739797
z" fill="none" stroke="none"></path>
<circle cx="0" cy="0" r="2.4340132449224225" fill="#f30f4c">
  <animateMotion begin="-14.550290672628403s" dur="15.25s" repeatCount="indefinite">
    <mpath xlink:href="#path47"></mpath>
  </animateMotion>
</circle><path id="path48" d="M 1601.2635402434669 310.22446549986324
c 0 20.150644883979783 -4.930476939697181 5.7879511900792995 -10.71842812977648 5.7879511900792995
S 1579.826683983914 330.37511038384304 1579.826683983914 310.22446549986324
s 4.930476939697181 -5.7879511900792995 10.71842812977648 -5.7879511900792995
S 1601.2635402434669 290.07382061588345 1601.2635402434669 310.22446549986324
z" fill="none" stroke="none"></path>
<circle cx="0" cy="0" r="2.1519215537125964" fill="#00003f">
  <animateMotion begin="-0.5601291068852459s" dur="15.25s" repeatCount="indefinite">
    <mpath xlink:href="#path48"></mpath>
  </animateMotion>
</circle><path id="path49" d="M 585.4152148592237 519.412007854273
c 0 30.716104640506313 -7.515642624804736 8.822710907379474 -16.338353532184207 8.822710907379474
S 552.7385077948553 550.1281124947793 552.7385077948553 519.412007854273
s 7.515642624804736 -8.822710907379474 16.338353532184207 -8.822710907379474
S 585.4152148592237 488.6959032137667 585.4152148592237 519.412007854273
z" fill="none" stroke="none"></path>
<circle cx="0" cy="0" r="2.2632076989952887" fill="#00003f">
  <animateMotion begin="-11.219615056605983s" dur="15.25s" repeatCount="indefinite">
    <mpath xlink:href="#path49"></mpath>
  </animateMotion>
</circle><path id="path50" d="M 246.14948494262507 172.35640244623534
c 0 31.006169895025188 -7.58661603814446 8.90602752303915 -16.492643561183613 8.90602752303915
S 213.1641978202578 203.36257234126052 213.1641978202578 172.35640244623534
s 7.58661603814446 -8.90602752303915 16.492643561183613 -8.90602752303915
S 246.14948494262507 141.35023255121015 246.14948494262507 172.35640244623534
z" fill="none" stroke="none"></path>
<circle cx="0" cy="0" r="3.5814539190001278" fill="#f30f4c">
  <animateMotion begin="-5.5165409112432275s" dur="15.25s" repeatCount="indefinite">
    <mpath xlink:href="#path50"></mpath>
  </animateMotion>
</circle><path id="path51" d="M 1685.6920952923538 574.6991462606936
c 0 27.648345489225854 -6.76502070481058 7.941546044777639 -14.70656674958822 7.941546044777639
S 1656.2789617931771 602.3474917499195 1656.2789617931771 574.6991462606936
s 6.76502070481058 -7.941546044777639 14.70656674958822 -7.941546044777639
S 1685.6920952923538 547.0508007714677 1685.6920952923538 574.6991462606936
z" fill="none" stroke="none"></path>
<circle cx="0" cy="0" r="2.9024190948378066" fill="#4ff2f8">
  <animateMotion begin="-7.825940297087017s" dur="15.25s" repeatCount="indefinite">
    <mpath xlink:href="#path51"></mpath>
  </animateMotion>
</circle><path id="path52" d="M 258.6090701945763 6.744400047810238
c 0 20.561214980348748 -5.030935580298097 5.905880898610811 -10.93681647890891 5.905880898610811
S 236.73543723675846 27.305615028158986 236.73543723675846 6.744400047810238
s 5.030935580298097 -5.905880898610811 10.93681647890891 -5.905880898610811
S 258.6090701945763 -13.81681493253851 258.6090701945763 6.744400047810238
z" fill="none" stroke="none"></path>
<circle cx="0" cy="0" r="3.306681749721694" fill="#f30f4c">
  <animateMotion begin="-6.758324172499737s" dur="15.25s" repeatCount="indefinite">
    <mpath xlink:href="#path52"></mpath>
  </animateMotion>
</circle><path id="path53" d="M 149.99557065329478 26.696848121816707
c 0 29.94670413631408 -7.32738505463004 8.601712890217874 -15.929097944847914 8.601712890217874
S 118.13737476359896 56.64355225813078 118.13737476359896 26.696848121816707
s 7.32738505463004 -8.601712890217874 15.929097944847914 -8.601712890217874
S 149.99557065329478 -3.2498560144973716 149.99557065329478 26.696848121816707
z" fill="none" stroke="none"></path>
<circle cx="0" cy="0" r="2.5939294430461453" fill="#4ff2f8">
  <animateMotion begin="-13.301646094248586s" dur="15.25s" repeatCount="indefinite">
    <mpath xlink:href="#path53"></mpath>
  </animateMotion>
</circle><path id="path54" d="M 599.3103946845026 545.6059908564133
c 0 26.52203864864351 -6.489434988497878 7.618032377801859 -14.107467366299737 7.618032377801859
S 571.0954599519032 572.1280295050568 571.0954599519032 545.6059908564133
s 6.489434988497878 -7.618032377801859 14.107467366299737 -7.618032377801859
S 599.3103946845026 519.0839522077698 599.3103946845026 545.6059908564133
z" fill="none" stroke="none"></path>
<circle cx="0" cy="0" r="3.318953678002654" fill="#f30f4c">
  <animateMotion begin="-8.24994744072413s" dur="15.25s" repeatCount="indefinite">
    <mpath xlink:href="#path54"></mpath>
  </animateMotion>
</circle><path id="path55" d="M 1467.6315489110991 111.58277401094625
c 0 24.935181886140786 -6.101161525332319 7.162233094955332 -13.263394620287652 7.162233094955332
S 1441.1047596705237 136.51795589708703 1441.1047596705237 111.58277401094625
s 6.101161525332319 -7.162233094955332 13.263394620287652 -7.162233094955332
S 1467.6315489110991 86.64759212480547 1467.6315489110991 111.58277401094625
z" fill="none" stroke="none"></path>
<circle cx="0" cy="0" r="3.386011696845575" fill="#f30f4c">
  <animateMotion begin="-4.675952747828742s" dur="15.25s" repeatCount="indefinite">
    <mpath xlink:href="#path55"></mpath>
  </animateMotion>
</circle><path id="path56" d="M 508.32226455713226 536.2738094892178
c 0 22.667618703142402 -5.546332235875268 6.510911755157925 -12.057243991033193 6.510911755157925
S 484.20777657506585 558.9414281923601 484.20777657506585 536.2738094892178
s 5.546332235875268 -6.510911755157925 12.057243991033193 -6.510911755157925
S 508.32226455713226 513.6061907860754 508.32226455713226 536.2738094892178
z" fill="none" stroke="none"></path>
<circle cx="0" cy="0" r="3.7195726037143184" fill="#f30f4c">
  <animateMotion begin="-9.993418513250175s" dur="15.25s" repeatCount="indefinite">
    <mpath xlink:href="#path56"></mpath>
  </animateMotion>
</circle><path id="path57" d="M 640.3805793572596 351.2087821008123
c 0 24.81393248543576 -6.071494118776834 7.127406139433677 -13.19890025821051 7.127406139433677
S 613.9827788408386 376.02271458624807 613.9827788408386 351.2087821008123
s 6.071494118776834 -7.127406139433677 13.19890025821051 -7.127406139433677
S 640.3805793572596 326.39484961537653 640.3805793572596 351.2087821008123
z" fill="none" stroke="none"></path>
<circle cx="0" cy="0" r="2.3825265766550783" fill="#00003f">
  <animateMotion begin="-6.820655808799841s" dur="15.25s" repeatCount="indefinite">
    <mpath xlink:href="#path57"></mpath>
  </animateMotion>
</circle></g>
</svg>