<svg xmlns="http://www.w3.org/2000/svg" xmlns:xlink="http://www.w3.org/1999/xlink" style="margin: auto; background: rgb(0, 0, 26); display: block; z-index: 1; position: relative; shape-rendering: auto;" width="1849" height="840" preserveAspectRatio="xMidYMid" viewBox="0 0 1849 840">
<g transform="translate(924.5,420) scale(1,1) translate(-924.5,-420)"><path id="path0" d="M 392.0669975081162 476.7244280340201
c 0 31.76038630439321 -7.771158351074934 9.12266415126188 -16.893822502336814 9.12266415126188
S 358.2793525034425 508.4848143384133 358.2793525034425 476.7244280340201
s 7.771158351074934 -9.12266415126188 16.893822502336814 -9.12266415126188
S 392.0669975081162 444.9640417296269 392.0669975081162 476.7244280340201
z" fill="none" stroke="none"></path>
<circle cx="0" cy="0" r="3.7804127863248853" fill="#00003f">
  <animateMotion begin="-5.89934633565844s" dur="7.890000000000001s" repeatCount="indefinite">
    <mpath xlink:href="#path0"></mpath>
  </animateMotion>
</circle><path id="path1" d="M 1594.342976013414 106.27036650011101
c 0 21.761969375407784 -5.324737187599776 6.25077843761713 -11.575515625216905 6.25077843761713
S 1571.1919447629803 128.03233587551878 1571.1919447629803 106.27036650011101
s 5.324737187599776 -6.25077843761713 11.575515625216905 -6.25077843761713
S 1594.342976013414 84.50839712470322 1594.342976013414 106.27036650011101
z" fill="none" stroke="none"></path>
<circle cx="0" cy="0" r="4.042828184375539" fill="#00003f">
  <animateMotion begin="-2.290547474810259s" dur="7.890000000000001s" repeatCount="indefinite">
    <mpath xlink:href="#path1"></mpath>
  </animateMotion>
</circle><path id="path2" d="M 1718.3195644721754 310.4421151331883
c 0 31.588590253143046 -7.729123147045638 9.07331847696662 -16.80244162401226 9.07331847696662
S 1684.7146812241508 342.0307053863313 1684.7146812241508 310.4421151331883
s 7.729123147045638 -9.07331847696662 16.80244162401226 -9.07331847696662
S 1718.3195644721754 278.85352488004526 1718.3195644721754 310.4421151331883
z" fill="none" stroke="none"></path>
<circle cx="0" cy="0" r="3.5717375341684674" fill="#00003f">
  <animateMotion begin="-1.2077047545403319s" dur="7.890000000000001s" repeatCount="indefinite">
    <mpath xlink:href="#path2"></mpath>
  </animateMotion>
</circle><path id="path3" d="M 1419.3082423047151 785.8245556980829
c 0 19.30250803607367 -4.722954093932919 5.544337414616906 -10.267291508549825 5.544337414616906
S 1398.7736592876156 805.1270637341565 1398.7736592876156 785.8245556980829
s 4.722954093932919 -5.544337414616906 10.267291508549825 -5.544337414616906
S 1419.3082423047151 766.5220476620093 1419.3082423047151 785.8245556980829
z" fill="none" stroke="none"></path>
<circle cx="0" cy="0" r="3.3801549328608997" fill="#00003f">
  <animateMotion begin="-4.117169475495407s" dur="7.890000000000001s" repeatCount="indefinite">
    <mpath xlink:href="#path3"></mpath>
  </animateMotion>
</circle><path id="path4" d="M 135.18993728074196 641.3235380745263
c 0 30.811250998819908 -7.53892311673253 8.850040180512101 -16.388963297244633 8.850040180512101
S 102.4120106862527 672.1347890733462 102.4120106862527 641.3235380745263
s 7.53892311673253 -8.850040180512101 16.388963297244633 -8.850040180512101
S 135.18993728074196 610.5122870757064 135.18993728074196 641.3235380745263
z" fill="none" stroke="none"></path>
<circle cx="0" cy="0" r="4.733420386070371" fill="#00003f">
  <animateMotion begin="-2.1807558381862133s" dur="7.890000000000001s" repeatCount="indefinite">
    <mpath xlink:href="#path4"></mpath>
  </animateMotion>
</circle><path id="path5" d="M 711.9711154863054 832.1693118320358
c 0 30.448933215264518 -7.450270893096636 8.745970178852575 -16.19624107194921 8.745970178852575
S 679.578633342407 862.6182450473003 679.578633342407 832.1693118320358
s 7.450270893096636 -8.745970178852575 16.19624107194921 -8.745970178852575
S 711.9711154863054 801.7203786167712 711.9711154863054 832.1693118320358
z" fill="none" stroke="none"></path>
<circle cx="0" cy="0" r="4.568919029276825" fill="#00003f">
  <animateMotion begin="-0.19003626877965601s" dur="7.890000000000001s" repeatCount="indefinite">
    <mpath xlink:href="#path5"></mpath>
  </animateMotion>
</circle><path id="path6" d="M 639.6295194820955 745.7570944957199
c 0 35.601998786782026 -8.71112736272326 10.226106034501221 -18.93723339722448 10.226106034501221
S 601.7550526876464 781.3590932825019 601.7550526876464 745.7570944957199
s 8.71112736272326 -10.226106034501221 18.93723339722448 -10.226106034501221
S 639.6295194820955 710.1550957089379 639.6295194820955 745.7570944957199
z" fill="none" stroke="none"></path>
<circle cx="0" cy="0" r="2.868941908192002" fill="#00003f">
  <animateMotion begin="-4.705744957436045s" dur="7.890000000000001s" repeatCount="indefinite">
    <mpath xlink:href="#path6"></mpath>
  </animateMotion>
</circle><path id="path7" d="M 1542.4540034454255 205.5500238178497
c 0 31.654417397233306 -7.745229788684744 9.092226273673397 -16.83745606235814 9.092226273673397
S 1508.7790913207093 237.20444121508302 1508.7790913207093 205.5500238178497
s 7.745229788684744 -9.092226273673397 16.83745606235814 -9.092226273673397
S 1542.4540034454255 173.8956064206164 1542.4540034454255 205.5500238178497
z" fill="none" stroke="none"></path>
<circle cx="0" cy="0" r="3.069703396301554" fill="#00003f">
  <animateMotion begin="-2.0632111971605593s" dur="7.890000000000001s" repeatCount="indefinite">
    <mpath xlink:href="#path7"></mpath>
  </animateMotion>
</circle><path id="path8" d="M 631.0306931674739 25.98887488560304
c 0 29.841225959142776 -7.3015765644711035 8.57141596698782 -15.872992531458923 8.57141596698782
S 599.284708104556 55.830100844745814 599.284708104556 25.98887488560304
s 7.3015765644711035 -8.57141596698782 15.872992531458923 -8.57141596698782
S 631.0306931674739 -3.8523510735397366 631.0306931674739 25.98887488560304
z" fill="none" stroke="none"></path>
<circle cx="0" cy="0" r="4.417235360500317" fill="#00003f">
  <animateMotion begin="-4.711220537781941s" dur="7.890000000000001s" repeatCount="indefinite">
    <mpath xlink:href="#path8"></mpath>
  </animateMotion>
</circle><path id="path9" d="M 51.248659515696474 348.5188564404869
c 0 32.78264919697535 -8.021286505642903 9.416292854450367 -17.43757936009327 9.416292854450367
S 16.373500795509937 381.30150563746224 16.373500795509937 348.5188564404869
s 8.021286505642903 -9.416292854450367 17.43757936009327 -9.416292854450367
S 51.248659515696474 315.73620724351156 51.248659515696474 348.5188564404869
z" fill="none" stroke="none"></path>
<circle cx="0" cy="0" r="4.631319181636059" fill="#00003f">
  <animateMotion begin="-7.095496160858222s" dur="7.890000000000001s" repeatCount="indefinite">
    <mpath xlink:href="#path9"></mpath>
  </animateMotion>
</circle><path id="path10" d="M 999.8687433872167 636.2092670261253
c 0 30.75683436146046 -7.525608407591387 8.834409869781195 -16.360018277372582 8.834409869781195
S 967.1487068324716 666.9661013875858 967.1487068324716 636.2092670261253
s 7.525608407591387 -8.834409869781195 16.360018277372582 -8.834409869781195
S 999.8687433872167 605.4524326646648 999.8687433872167 636.2092670261253
z" fill="none" stroke="none"></path>
<circle cx="0" cy="0" r="3.067379921592179" fill="#00003f">
  <animateMotion begin="-0.9182007121653337s" dur="7.890000000000001s" repeatCount="indefinite">
    <mpath xlink:href="#path10"></mpath>
  </animateMotion>
</circle><path id="path11" d="M 95.19193618142711 417.60812259273735
c 0 20.949381482718685 -5.125912490452444 6.01737553227026 -11.143288022722704 6.01737553227026
S 72.90536013598171 438.55750407545605 72.90536013598171 417.60812259273735
s 5.125912490452444 -6.01737553227026 11.143288022722704 -6.01737553227026
S 95.19193618142711 396.65874111001864 95.19193618142711 417.60812259273735
z" fill="none" stroke="none"></path>
<circle cx="0" cy="0" r="3.5663838566049657" fill="#00003f">
  <animateMotion begin="-1.2944675803357553s" dur="7.890000000000001s" repeatCount="indefinite">
    <mpath xlink:href="#path11"></mpath>
  </animateMotion>
</circle><path id="path12" d="M 255.15685229074515 444.0073517776073
c 0 31.03731914951955 -7.594237664244145 8.914974649330084 -16.509212313574228 8.914974649330084
S 222.13842766359667 475.04467092712684 222.13842766359667 444.0073517776073
s 7.594237664244145 -8.914974649330084 16.509212313574228 -8.914974649330084
S 255.15685229074515 412.9700326280878 255.15685229074515 444.0073517776073
z" fill="none" stroke="none"></path>
<circle cx="0" cy="0" r="4.64594079282736" fill="#00003f">
  <animateMotion begin="-5.722375027234392s" dur="7.890000000000001s" repeatCount="indefinite">
    <mpath xlink:href="#path12"></mpath>
  </animateMotion>
</circle><path id="path13" d="M 1852.8338340116236 107.63224180627495
c 0 36.53416319116818 -8.939210142519874 10.493855384697245 -19.43306552721712 10.493855384697245
S 1813.9677029571892 144.16640499744312 1813.9677029571892 107.63224180627495
s 8.939210142519874 -10.493855384697245 19.43306552721712 -10.493855384697245
S 1852.8338340116236 71.09807861510677 1852.8338340116236 107.63224180627495
z" fill="none" stroke="none"></path>
<circle cx="0" cy="0" r="3.1854775407000946" fill="#00003f">
  <animateMotion begin="-2.8538365115399125s" dur="7.890000000000001s" repeatCount="indefinite">
    <mpath xlink:href="#path13"></mpath>
  </animateMotion>
</circle><path id="path14" d="M 555.845538856585 753.5635302089921
c 0 22.17779777656116 -5.426482434690495 6.370218510288844 -11.796700944979339 6.370218510288844
S 532.2521369666264 775.7413279855533 532.2521369666264 753.5635302089921
s 5.426482434690495 -6.370218510288844 11.796700944979339 -6.370218510288844
S 555.845538856585 731.3857324324309 555.845538856585 753.5635302089921
z" fill="none" stroke="none"></path>
<circle cx="0" cy="0" r="4.419757571344676" fill="#00003f">
  <animateMotion begin="-5.902187728933444s" dur="7.890000000000001s" repeatCount="indefinite">
    <mpath xlink:href="#path14"></mpath>
  </animateMotion>
</circle><path id="path15" d="M 1604.1717670999817 93.91612106581206
c 0 22.554012046240928 -5.5185348623780985 6.47828005583516 -11.996814918213259 6.47828005583516
S 1580.1781372635553 116.47013311205299 1580.1781372635553 93.91612106581206
s 5.5185348623780985 -6.47828005583516 11.996814918213259 -6.47828005583516
S 1604.1717670999817 71.36210901957114 1604.1717670999817 93.91612106581206
z" fill="none" stroke="none"></path>
<circle cx="0" cy="0" r="3.3903947767508766" fill="#00003f">
  <animateMotion begin="-4.195000541853434s" dur="7.890000000000001s" repeatCount="indefinite">
    <mpath xlink:href="#path15"></mpath>
  </animateMotion>
</circle><path id="path16" d="M 1343.323543484806 729.2694692877259
c 0 31.08605381665704 -7.606162104075658 8.92897290478447 -16.535135008860127 8.92897290478447
S 1310.2532734670856 760.3555231043829 1310.2532734670856 729.2694692877259
s 7.606162104075658 -8.92897290478447 16.535135008860127 -8.92897290478447
S 1343.323543484806 698.1834154710689 1343.323543484806 729.2694692877259
z" fill="none" stroke="none"></path>
<circle cx="0" cy="0" r="4.0677952520878815" fill="#00003f">
  <animateMotion begin="-3.9783061343942405s" dur="7.890000000000001s" repeatCount="indefinite">
    <mpath xlink:href="#path16"></mpath>
  </animateMotion>
</circle><path id="path17" d="M 1265.963089603492 58.00973451037928
c 0 25.38844596556377 -6.212066566042198 7.292425968832146 -13.504492534874345 7.292425968832146
S 1238.9541045337435 83.39818047594305 1238.9541045337435 58.00973451037928
s 6.212066566042198 -7.292425968832146 13.504492534874345 -7.292425968832146
S 1265.963089603492 32.62128854481551 1265.963089603492 58.00973451037928
z" fill="none" stroke="none"></path>
<circle cx="0" cy="0" r="4.1213496634208235" fill="#00003f">
  <animateMotion begin="-2.7198097103181462s" dur="7.890000000000001s" repeatCount="indefinite">
    <mpath xlink:href="#path17"></mpath>
  </animateMotion>
</circle><path id="path18" d="M 1298.4587427386648 317.5115817014796
c 0 25.17763735115106 -6.16048573485611 7.231874558309348 -13.392360293165456 7.231874558309348
S 1271.674022152334 342.6892190526307 1271.674022152334 317.5115817014796
s 6.16048573485611 -7.231874558309348 13.392360293165456 -7.231874558309348
S 1298.4587427386648 292.3339443503285 1298.4587427386648 317.5115817014796
z" fill="none" stroke="none"></path>
<circle cx="0" cy="0" r="3.804303022196353" fill="#00003f">
  <animateMotion begin="-5.614582257955713s" dur="7.890000000000001s" repeatCount="indefinite">
    <mpath xlink:href="#path18"></mpath>
  </animateMotion>
</circle><path id="path19" d="M 1755.0564883900383 401.6311233647376
c 0 36.0241893038183 -8.814429297742775 10.34737352343717 -19.161802821179947 10.34737352343717
S 1716.7328827476786 437.6553126685559 1716.7328827476786 401.6311233647376
s 8.814429297742775 -10.34737352343717 19.161802821179947 -10.34737352343717
S 1755.0564883900383 365.60693406091934 1755.0564883900383 401.6311233647376
z" fill="none" stroke="none"></path>
<circle cx="0" cy="0" r="3.205014150440176" fill="#00003f">
  <animateMotion begin="-0.3828380986088524s" dur="7.890000000000001s" repeatCount="indefinite">
    <mpath xlink:href="#path19"></mpath>
  </animateMotion>
</circle><path id="path20" d="M 1797.9930441448794 91.63229866180195
c 0 21.029253989045777 -5.145455763277158 6.040317635151447 -11.185773398428605 6.040317635151447
S 1775.621497348022 112.66155265084774 1775.621497348022 91.63229866180195
s 5.145455763277158 -6.040317635151447 11.185773398428605 -6.040317635151447
S 1797.9930441448794 70.60304467275617 1797.9930441448794 91.63229866180195
z" fill="none" stroke="none"></path>
<circle cx="0" cy="0" r="3.5679117954298905" fill="#00003f">
  <animateMotion begin="-6.059944393994735s" dur="7.890000000000001s" repeatCount="indefinite">
    <mpath xlink:href="#path20"></mpath>
  </animateMotion>
</circle><path id="path21" d="M 1402.770529445864 673.3397349162962
c 0 23.850064389184602 -5.835654052672828 6.850550409659408 -12.686204462332235 6.850550409659408
S 1377.3981205211996 697.1897993054807 1377.3981205211996 673.3397349162962
s 5.835654052672828 -6.850550409659408 12.686204462332235 -6.850550409659408
S 1402.770529445864 649.4896705271116 1402.770529445864 673.3397349162962
z" fill="none" stroke="none"></path>
<circle cx="0" cy="0" r="3.3718980284309543" fill="#00003f">
  <animateMotion begin="-7.259423161419975s" dur="7.890000000000001s" repeatCount="indefinite">
    <mpath xlink:href="#path21"></mpath>
  </animateMotion>
</circle><path id="path22" d="M 346.6668648160731 252.75988595289957
c 0 33.160106852818195 -8.11364316611509 9.52471154283076 -17.638354708945847 9.52471154283076
S 311.39015539818143 285.91999280571775 311.39015539818143 252.75988595289957
s 8.11364316611509 -9.52471154283076 17.638354708945847 -9.52471154283076
S 346.6668648160731 219.59977910008138 346.6668648160731 252.75988595289957
z" fill="none" stroke="none"></path>
<circle cx="0" cy="0" r="3.898096377296177" fill="#00003f">
  <animateMotion begin="-3.2594277251996426s" dur="7.890000000000001s" repeatCount="indefinite">
    <mpath xlink:href="#path22"></mpath>
  </animateMotion>
</circle><path id="path23" d="M 291.4213860301398 434.9236608288153
c 0 23.16529733025626 -5.668104665913765 6.65386199911616 -12.321966665029924 6.65386199911616
S 266.7774527000799 458.0889581590715 266.7774527000799 434.9236608288153
s 5.668104665913765 -6.65386199911616 12.321966665029924 -6.65386199911616
S 291.4213860301398 411.75836349855905 291.4213860301398 434.9236608288153
z" fill="none" stroke="none"></path>
<circle cx="0" cy="0" r="3.6197190348408324" fill="#00003f">
  <animateMotion begin="-5.036935235523404s" dur="7.890000000000001s" repeatCount="indefinite">
    <mpath xlink:href="#path23"></mpath>
  </animateMotion>
</circle><path id="path24" d="M 350.0364840723537 404.6227122928912
c 0 34.122012179254845 -8.34900298003044 9.801003498296604 -18.150006478327043 9.801003498296604
S 313.7364711156996 438.74472447214606 313.7364711156996 404.6227122928912
s 8.34900298003044 -9.801003498296604 18.150006478327043 -9.801003498296604
S 350.0364840723537 370.50070011363636 350.0364840723537 404.6227122928912
z" fill="none" stroke="none"></path>
<circle cx="0" cy="0" r="4.930068417253109" fill="#00003f">
  <animateMotion begin="-6.786234901187871s" dur="7.890000000000001s" repeatCount="indefinite">
    <mpath xlink:href="#path24"></mpath>
  </animateMotion>
</circle><path id="path25" d="M 1743.7228462566375 100.5939916954846
c 0 22.024227329680905 -5.388906687049582 6.326107850014727 -11.71501453706431 6.326107850014727
S 1720.292817182509 122.6182190251655 1720.292817182509 100.5939916954846
s 5.388906687049582 -6.326107850014727 11.71501453706431 -6.326107850014727
S 1743.7228462566375 78.5697643658037 1743.7228462566375 100.5939916954846
z" fill="none" stroke="none"></path>
<circle cx="0" cy="0" r="4.792172241489198" fill="#00003f">
  <animateMotion begin="-5.5946677095048605s" dur="7.890000000000001s" repeatCount="indefinite">
    <mpath xlink:href="#path25"></mpath>
  </animateMotion>
</circle><path id="path26" d="M 1426.5933374389735 256.9446417586293
c 0 29.471991301444536 -7.211231914183237 8.46535920360641 -15.676591117789647 8.46535920360641
S 1395.2401552033941 286.4166330600738 1395.2401552033941 256.9446417586293
s 7.211231914183237 -8.46535920360641 15.676591117789647 -8.46535920360641
S 1426.5933374389735 227.47265045718476 1426.5933374389735 256.9446417586293
z" fill="none" stroke="none"></path>
<circle cx="0" cy="0" r="4.814520236062294" fill="#00003f">
  <animateMotion begin="-7.1609308723811065s" dur="7.890000000000001s" repeatCount="indefinite">
    <mpath xlink:href="#path26"></mpath>
  </animateMotion>
</circle><path id="path27" d="M 1518.7365130232913 675.0853462861309
c 0 27.335666839927462 -6.688514226790761 7.851734092319591 -14.54024831911035 7.851734092319591
S 1489.6560163850706 702.4210131260584 1489.6560163850706 675.0853462861309
s 6.688514226790761 -7.851734092319591 14.54024831911035 -7.851734092319591
S 1518.7365130232913 647.7496794462033 1518.7365130232913 675.0853462861309
z" fill="none" stroke="none"></path>
<circle cx="0" cy="0" r="2.680299652277111" fill="#00003f">
  <animateMotion begin="-5.097416829848898s" dur="7.890000000000001s" repeatCount="indefinite">
    <mpath xlink:href="#path27"></mpath>
  </animateMotion>
</circle><path id="path28" d="M 182.63842978758206 23.149728244956798
c 0 24.031951641556912 -5.880158380380945 6.902794620447198 -12.782953000828144 6.902794620447198
S 157.07252378592577 47.181679886513706 157.07252378592577 23.149728244956798
s 5.880158380380945 -6.902794620447198 12.782953000828144 -6.902794620447198
S 182.63842978758206 -0.8822233966001143 182.63842978758206 23.149728244956798
z" fill="none" stroke="none"></path>
<circle cx="0" cy="0" r="3.737208113909281" fill="#00003f">
  <animateMotion begin="-6.194031465244632s" dur="7.890000000000001s" repeatCount="indefinite">
    <mpath xlink:href="#path28"></mpath>
  </animateMotion>
</circle><path id="path29" d="M 693.2569380669455 836.2030569295307
c 0 30.24256436847634 -7.399776388031444 8.686694020732567 -16.08647040876401 8.686694020732567
S 661.0839972494174 866.445621298007 661.0839972494174 836.2030569295307
s 7.399776388031444 -8.686694020732567 16.08647040876401 -8.686694020732567
S 693.2569380669455 805.9604925610544 693.2569380669455 836.2030569295307
z" fill="none" stroke="none"></path>
<circle cx="0" cy="0" r="3.657857943717829" fill="#00003f">
  <animateMotion begin="-3.181977899302479s" dur="7.890000000000001s" repeatCount="indefinite">
    <mpath xlink:href="#path29"></mpath>
  </animateMotion>
</circle><path id="path30" d="M 1787.8221954457244 697.3636958835566
c 0 30.913244342329975 -7.563878934825419 8.879336140882014 -16.443215075707435 8.879336140882014
S 1754.9357652943095 728.2769402258866 1754.9357652943095 697.3636958835566
s 7.563878934825419 -8.879336140882014 16.443215075707435 -8.879336140882014
S 1787.8221954457244 666.4504515412266 1787.8221954457244 697.3636958835566
z" fill="none" stroke="none"></path>
<circle cx="0" cy="0" r="4.259386878368649" fill="#00003f">
  <animateMotion begin="-3.4849539004686663s" dur="7.890000000000001s" repeatCount="indefinite">
    <mpath xlink:href="#path30"></mpath>
  </animateMotion>
</circle><path id="path31" d="M 172.4314129947291 460.38688822167074
c 0 19.630938702395298 -4.803314788883955 5.638673882602904 -10.44198867148686 5.638673882602904
S 151.5474356517554 480.01782692406607 151.5474356517554 460.38688822167074
s 4.803314788883955 -5.638673882602904 10.44198867148686 -5.638673882602904
S 172.4314129947291 440.7559495192754 172.4314129947291 460.38688822167074
z" fill="none" stroke="none"></path>
<circle cx="0" cy="0" r="3.989535388563863" fill="#00003f">
  <animateMotion begin="-5.373533164234643s" dur="7.890000000000001s" repeatCount="indefinite">
    <mpath xlink:href="#path31"></mpath>
  </animateMotion>
</circle><path id="path32" d="M 1852.2684622446711 717.1555296882032
c 0 29.725726394503447 -7.273316032697651 8.53824056012333 -15.811556592820981 8.53824056012333
S 1820.645349059029 746.8812560827066 1820.645349059029 717.1555296882032
s 7.273316032697651 -8.53824056012333 15.811556592820981 -8.53824056012333
S 1852.2684622446711 687.4298032936997 1852.2684622446711 717.1555296882032
z" fill="none" stroke="none"></path>
<circle cx="0" cy="0" r="3.2126585008076725" fill="#00003f">
  <animateMotion begin="-1.9258792995010596s" dur="7.890000000000001s" repeatCount="indefinite">
    <mpath xlink:href="#path32"></mpath>
  </animateMotion>
</circle><path id="path33" d="M 455.2788501763991 24.63160261819756
c 0 23.10656055168061 -5.653732900943127 6.636990796759323 -12.29072369770245 6.636990796759323
S 430.6974027809942 47.73816316987817 430.6974027809942 24.63160261819756
s 5.653732900943127 -6.636990796759323 12.29072369770245 -6.636990796759323
S 455.2788501763991 1.5250420665169528 455.2788501763991 24.63160261819756
z" fill="none" stroke="none"></path>
<circle cx="0" cy="0" r="3.9089458220133273" fill="#00003f">
  <animateMotion begin="-5.889699823465908s" dur="7.890000000000001s" repeatCount="indefinite">
    <mpath xlink:href="#path33"></mpath>
  </animateMotion>
</circle><path id="path34" d="M 1618.0850751801445 370.13640100144784
c 0 32.02073452296791 -7.8348605747687445 9.197445022554614 -17.032305597323358 9.197445022554614
S 1584.0204639854978 402.15713552441576 1584.0204639854978 370.13640100144784
s 7.8348605747687445 -9.197445022554614 17.032305597323358 -9.197445022554614
S 1618.0850751801445 338.1156664784799 1618.0850751801445 370.13640100144784
z" fill="none" stroke="none"></path>
<circle cx="0" cy="0" r="4.192844110129827" fill="#00003f">
  <animateMotion begin="-4.9365030883984975s" dur="7.890000000000001s" repeatCount="indefinite">
    <mpath xlink:href="#path34"></mpath>
  </animateMotion>
</circle><path id="path35" d="M 552.3660625087875 553.7485680687462
c 0 30.41806797038901 -7.442718758712204 8.737104629792588 -16.179823388504794 8.737104629792588
S 520.0064157317779 584.1666360391351 520.0064157317779 553.7485680687462
s 7.442718758712204 -8.737104629792588 16.179823388504794 -8.737104629792588
S 552.3660625087875 523.3305000983572 552.3660625087875 553.7485680687462
z" fill="none" stroke="none"></path>
<circle cx="0" cy="0" r="2.702841995207339" fill="#00003f">
  <animateMotion begin="-2.549470108239704s" dur="7.890000000000001s" repeatCount="indefinite">
    <mpath xlink:href="#path35"></mpath>
  </animateMotion>
</circle><path id="path36" d="M 169.970689947769 452.06710308676026
c 0 23.3284515731118 -5.708025384910333 6.700725451851262 -12.408750836761595 6.700725451851262
S 145.15318827424582 475.39555465987206 145.15318827424582 452.06710308676026
s 5.708025384910333 -6.700725451851262 12.408750836761595 -6.700725451851262
S 169.970689947769 428.73865151364845 169.970689947769 452.06710308676026
z" fill="none" stroke="none"></path>
<circle cx="0" cy="0" r="3.604094894653858" fill="#00003f">
  <animateMotion begin="-4.422967925450942s" dur="7.890000000000001s" repeatCount="indefinite">
    <mpath xlink:href="#path36"></mpath>
  </animateMotion>
</circle><path id="path37" d="M 1677.1631962532654 574.632107075206
c 0 31.106697084284455 -7.611213116367472 8.934902353996598 -16.54611547036407 8.934902353996598
S 1644.070965312537 605.7388041594904 1644.070965312537 574.632107075206
s 7.611213116367472 -8.934902353996598 16.54611547036407 -8.934902353996598
S 1677.1631962532654 543.5254099909216 1677.1631962532654 574.632107075206
z" fill="none" stroke="none"></path>
<circle cx="0" cy="0" r="4.107410773270709" fill="#00003f">
  <animateMotion begin="-1.4577650403547662s" dur="7.890000000000001s" repeatCount="indefinite">
    <mpath xlink:href="#path37"></mpath>
  </animateMotion>
</circle><path id="path38" d="M 1124.616098373811 228.92047617132516
c 0 19.23647175403894 -4.70679628024357 5.525369546372887 -10.232165826616457 5.525369546372887
S 1104.151766720578 248.1569479253641 1104.151766720578 228.92047617132516
s 4.70679628024357 -5.525369546372887 10.232165826616457 -5.525369546372887
S 1124.616098373811 209.68400441728622 1124.616098373811 228.92047617132516
z" fill="none" stroke="none"></path>
<circle cx="0" cy="0" r="2.630447013189752" fill="#00003f">
  <animateMotion begin="-7.860450504091655s" dur="7.890000000000001s" repeatCount="indefinite">
    <mpath xlink:href="#path38"></mpath>
  </animateMotion>
</circle><path id="path39" d="M 1822.0331972885917 470.6214577930773
c 0 23.087338172046568 -5.649029552734798 6.631469474949546 -12.280499027684344 6.631469474949546
S 1797.4721992332231 493.70879596512384 1797.4721992332231 470.6214577930773
s 5.649029552734798 -6.631469474949546 12.280499027684344 -6.631469474949546
S 1822.0331972885917 447.53411962103075 1822.0331972885917 470.6214577930773
z" fill="none" stroke="none"></path>
<circle cx="0" cy="0" r="4.070840050046839" fill="#00003f">
  <animateMotion begin="-0.012362226633049679s" dur="7.890000000000001s" repeatCount="indefinite">
    <mpath xlink:href="#path39"></mpath>
  </animateMotion>
</circle><path id="path40" d="M 238.47840827392596 349.7949305005305
c 0 28.46928736949966 -6.9658894627499155 8.177348499749902 -15.143237962499818 8.177348499749902
S 208.19193234892631 378.26421787003017 208.19193234892631 349.7949305005305
s 6.9658894627499155 -8.177348499749902 15.143237962499818 -8.177348499749902
S 238.47840827392596 321.3256431310308 238.47840827392596 349.7949305005305
z" fill="none" stroke="none"></path>
<circle cx="0" cy="0" r="3.7630953595291428" fill="#00003f">
  <animateMotion begin="-0.3635339914103035s" dur="7.890000000000001s" repeatCount="indefinite">
    <mpath xlink:href="#path40"></mpath>
  </animateMotion>
</circle><path id="path41" d="M 1157.7734578984785 769.5128146371326
c 0 33.138786115291296 -8.108426389911699 9.518587501200692 -17.62701389111239 9.518587501200692
S 1122.5194301162535 802.6516007524239 1122.5194301162535 769.5128146371326
s 8.108426389911699 -9.518587501200692 17.62701389111239 -9.518587501200692
S 1157.7734578984785 736.3740285218413 1157.7734578984785 769.5128146371326
z" fill="none" stroke="none"></path>
<circle cx="0" cy="0" r="4.08336374887034" fill="#00003f">
  <animateMotion begin="-0.5683364111891646s" dur="7.890000000000001s" repeatCount="indefinite">
    <mpath xlink:href="#path41"></mpath>
  </animateMotion>
</circle><path id="path42" d="M 694.3639193021941 206.79563585952508
c 0 30.409020836277676 -7.4405050982381535 8.73450598488827 -16.17501108312642 8.73450598488827
S 662.0138971359413 237.20465669580275 662.0138971359413 206.79563585952508
s 7.4405050982381535 -8.73450598488827 16.17501108312642 -8.73450598488827
S 694.3639193021941 176.3866150232474 694.3639193021941 206.79563585952508
z" fill="none" stroke="none"></path>
<circle cx="0" cy="0" r="3.7139855596770976" fill="#00003f">
  <animateMotion begin="-1.770289060752346s" dur="7.890000000000001s" repeatCount="indefinite">
    <mpath xlink:href="#path42"></mpath>
  </animateMotion>
</circle><path id="path43" d="M 1845.2528390030852 760.1903562703726
c 0 32.47637029041665 -7.946345922123221 9.328319125970738 -17.27466504809396 9.328319125970738
S 1810.7035089068972 792.6667265607892 1810.7035089068972 760.1903562703726
s 7.946345922123221 -9.328319125970738 17.27466504809396 -9.328319125970738
S 1845.2528390030852 727.713985979956 1845.2528390030852 760.1903562703726
z" fill="none" stroke="none"></path>
<circle cx="0" cy="0" r="2.88715977503768" fill="#00003f">
  <animateMotion begin="-7.3278575265389305s" dur="7.890000000000001s" repeatCount="indefinite">
    <mpath xlink:href="#path43"></mpath>
  </animateMotion>
</circle><path id="path44" d="M 1316.3143440754359 254.67099521526117
c 0 29.09487226952293 -7.118958108500291 8.357037779543822 -15.475995888044112 8.357037779543822
S 1285.3623522993478 283.7658674847841 1285.3623522993478 254.67099521526117
s 7.118958108500291 -8.357037779543822 15.475995888044112 -8.357037779543822
S 1316.3143440754359 225.57612294573823 1316.3143440754359 254.67099521526117
z" fill="none" stroke="none"></path>
<circle cx="0" cy="0" r="2.9511977970596437" fill="#00003f">
  <animateMotion begin="-0.5844430818554637s" dur="7.890000000000001s" repeatCount="indefinite">
    <mpath xlink:href="#path44"></mpath>
  </animateMotion>
</circle><path id="path45" d="M 927.4114756991852 548.1723622207219
c 0 27.606882582641248 -6.7548755255398785 7.9296364865033375 -14.684512012043216 7.9296364865033375
S 898.0424516750987 575.7792448033631 898.0424516750987 548.1723622207219
s 6.7548755255398785 -7.9296364865033375 14.684512012043216 -7.9296364865033375
S 927.4114756991852 520.5654796380807 927.4114756991852 548.1723622207219
z" fill="none" stroke="none"></path>
<circle cx="0" cy="0" r="2.6351253196256725" fill="#00003f">
  <animateMotion begin="-1.741581744227605s" dur="7.890000000000001s" repeatCount="indefinite">
    <mpath xlink:href="#path45"></mpath>
  </animateMotion>
</circle></g>
</svg>