<svg xmlns="http://www.w3.org/2000/svg" version="1.1" xmlns:xlink="http://www.w3.org/1999/xlink" xmlns:svgjs="http://svgjs.com/svgjs" width="1440" height="560" preserveAspectRatio="none" viewBox="0 0 1440 560"><g mask="url(&quot;#SvgjsMask1014&quot;)" fill="none"><path d="M 0,256 C 20.6,231 61.8,151 103,131 C 144.2,111 164.8,157.6 206,156 C 247.2,154.4 267.8,103 309,123 C 350.2,143 370.8,258.8 412,256 C 453.2,253.2 473.8,107 515,109 C 556.2,111 576.8,281.6 618,266 C 659.2,250.4 679.8,43.6 721,31 C 762.2,18.4 782.8,187.8 824,203 C 865.2,218.2 885.8,109.8 927,107 C 968.2,104.2 988.8,203.2 1030,189 C 1071.2,174.8 1091.8,26.6 1133,36 C 1174.2,45.4 1194.8,242 1236,236 C 1277.2,230 1298.2,5.2 1339,6 C 1379.8,6.8 1419.8,193.2 1440,240L1440 560L0 560z" fill="rgba(0, 0, 45, 1)"></path><path d="M 0,557 C 72,505.8 216,316.6 360,301 C 504,285.4 576,462.6 720,479 C 864,495.4 936,376.8 1080,383 C 1224,389.2 1368,484.6 1440,510L1440 560L0 560z" fill="rgba(0, 0, 26, 1)"></path></g><defs><mask id="SvgjsMask1014"><rect width="1440" height="560" fill="#ffffff"></rect></mask></defs></svg>