<svg xmlns="http://www.w3.org/2000/svg" xmlns:xlink="http://www.w3.org/1999/xlink" xmlns:svgjs="http://svgjs.com/svgjs" version="1.1" width="1440" height="560" preserveAspectRatio="none" style=""><rect id="backgroundrect" width="100%" height="100%" x="0" y="0" fill="none" stroke="none"/><defs><mask id="SvgjsMask1000"><rect width="1440" height="560" fill="#ffffff" id="svg_1"/></mask></defs><g class="currentLayer" style=""><title>Layer 1</title><g mask="url(&quot;#SvgjsMask1000&quot;)" fill="none" id="svg_2" class="" transform="rotate(-179.94349670410156 720,277.00103759765625) "><path d="M0,250.00215578079224 C20.6,225.00215578079224 61.8,145.00215578079224 103,125.00215578079224 C144.2,105.00215578079224 164.8,151.60215578079223 206,150.00215578079224 C247.2,148.40215578079224 267.8,97.00215578079224 309,117.00215578079224 C350.2,137.00215578079224 370.8,252.80215578079225 412,250.00215578079224 C453.2,247.20215578079222 473.8,101.00215578079224 515,103.00215578079224 C556.2,105.00215578079224 576.8,275.60215578079226 618,260.00215578079224 C659.2,244.40215578079224 679.8,37.60215578079224 721,25.002155780792236 C762.2,12.402155780792235 782.8,181.80215578079225 824,197.00215578079224 C865.2,212.20215578079222 885.8,103.80215578079223 927,101.00215578079224 C968.2,98.20215578079224 988.8,197.20215578079222 1030,183.00215578079224 C1071.2,168.80215578079225 1091.8,20.602155780792238 1133,30.002155780792236 C1174.2,39.402155780792235 1194.8,236.00215578079224 1236,230.00215578079224 C1277.2,224.00215578079224 1298.2,-0.7978442192077644 1339,0.002155780792236329 C1379.8,0.802155780792237 1419.8,187.20215578079222 1440,234.00215578079224 L1440,554.0021557807922 L0,554.0021557807922 z" fill="rgba(0, 0, 28, 1)" id="svg_3"/><path d="M0,551.0021557807922 C72,499.80215578079225 216,310.60215578079226 360,295.00215578079224 C504,279.4021557807922 576,456.60215578079226 720,473.00215578079224 C864,489.4021557807922 936,370.80215578079225 1080,377.00215578079224 C1224,383.2021557807922 1368,478.60215578079226 1440,504.00215578079224 L1440,554.0021557807922 L0,554.0021557807922 z" fill="rgba(0, 0, 26, 1)" id="svg_4"/></g></g></svg>